# xmcd CD database file
#
# Track frame offsets:
#	750
#	34276
#	90963
#	156966
#	202832
#	263250
#	291584
#	310998
#
# Disc length: 4425 seconds
#
# Revision: 0
# Processed by: cddbd v1.5.2PL0 Copyright (c) Steve Scherf et al.
# Submitted via: CDex 1.51
#
DISCID=63113f08
DTITLE=Christa v. Bernuth - Damals warst du still
DYEAR=2004
DGENRE=Hörbuch
TTITLE0=041
TTITLE1=042
TTITLE2=043
TTITLE3=044
TTITLE4=045
TTITLE5=046
TTITLE6=047
TTITLE7=048
EXTD=YEAR: 2004
EXTT0=
EXTT1=
EXTT2=
EXTT3=
EXTT4=
EXTT5=
EXTT6=
EXTT7=
PLAYORDER=
